<svg width="38" height="37" viewBox="0 0 38 37" fill="none" xmlns="http://www.w3.org/2000/svg">
<path d="M31.35 28.75C33.8952 28.75 35.1678 28.75 35.958 27.98C36.75 27.2117 36.75 25.9745 36.75 23.5C36.75 21.0255 36.75 19.7882 35.958 19.02C35.1696 18.25 33.897 18.25 31.35 18.25M6.15 28.75C3.6048 28.75 2.3322 28.75 1.542 27.98C0.75 27.2135 0.75 25.9762 0.75 23.5C0.75 21.0238 0.75 19.7882 1.542 19.02C2.3304 18.25 3.603 18.25 6.15 18.25M31.35 25.25V21.75C31.35 16.801 31.35 14.3247 29.7678 12.7882C28.1874 11.25 25.6404 11.25 20.55 11.25H16.95C11.8596 11.25 9.3126 11.25 7.7322 12.7882C6.15 14.3247 6.15 16.801 6.15 21.75V25.25C6.15 30.199 6.15 32.6753 7.7322 34.2118C9.3126 35.75 11.8596 35.75 16.95 35.75H20.55C25.6404 35.75 28.1874 35.75 29.7678 34.2118C31.35 32.6753 31.35 30.199 31.35 25.25Z" stroke="white" stroke-width="1.5" stroke-linejoin="round"/>
<path d="M21.4498 3.375C21.4498 4.07119 21.1653 4.73887 20.659 5.23116C20.1526 5.72344 19.4659 6 18.7498 6C18.0337 6 17.347 5.72344 16.8406 5.23116C16.3343 4.73887 16.0498 4.07119 16.0498 3.375C16.0498 2.67881 16.3343 2.01113 16.8406 1.51884C17.347 1.02656 18.0337 0.75 18.7498 0.75C19.4659 0.75 20.1526 1.02656 20.659 1.51884C21.1653 2.01113 21.4498 2.67881 21.4498 3.375Z" stroke="white" stroke-width="1.5"/>
<path d="M18.7501 6V11.25M13.3501 20V21.75M24.1501 20V21.75" stroke="white" stroke-width="1.5" stroke-linecap="round" stroke-linejoin="round"/>
<path d="M15.1499 27.875C15.1499 27.875 16.3505 28.75 18.7499 28.75C21.1493 28.75 22.3499 27.875 22.3499 27.875" stroke="white" stroke-width="1.5" stroke-linecap="round"/>
</svg>
